<?xml version="1.0" encoding="utf-8"?>
<!-- Generator: Adobe Illustrator 24.2.3, SVG Export Plug-In . SVG Version: 6.00 Build 0)  -->
<svg version="1.1" id="Layer_1" xmlns="http://www.w3.org/2000/svg" xmlns:xlink="http://www.w3.org/1999/xlink" x="0px" y="0px"
	 viewBox="0 0 784.37 675.16" style="enable-background:new 0 0 784.37 675.16;" xml:space="preserve">
<style type="text/css">
	.st0{fill:url(#SVGID_1_);}
	.st1{fill:url(#SVGID_2_);}
	.st2{fill:url(#SVGID_3_);}
	.st3{fill:url(#SVGID_4_);}
	.st4{fill:url(#SVGID_5_);}
	.st5{fill:url(#SVGID_6_);}
	.st6{fill:url(#SVGID_7_);}
	.st7{fill:url(#SVGID_8_);}
	.st8{fill:url(#SVGID_9_);}
	.st9{fill:url(#SVGID_10_);}
	.st10{fill:url(#SVGID_11_);}
	.st11{fill:url(#SVGID_12_);}
	.st12{fill:url(#SVGID_13_);}
	.st13{fill:url(#SVGID_14_);}
	.st14{fill:#FCFCFC;}
	.st15{fill:url(#SVGID_15_);}
	.st16{fill:url(#SVGID_16_);}
	.st17{fill:url(#SVGID_17_);}
	.st18{fill:url(#SVGID_18_);}
	.st19{fill:url(#SVGID_19_);}
	.st20{fill:url(#SVGID_20_);}
	.st21{fill:url(#SVGID_21_);}
</style>
<g>
	<g>
		<linearGradient id="SVGID_1_" gradientUnits="userSpaceOnUse" x1="35.3704" y1="-110.6246" x2="753.8678" y2="791.2655">
			<stop  offset="0" style="stop-color:#F9A103"/>
			<stop  offset="0.4399" style="stop-color:#ED5437"/>
			<stop  offset="0.8198" style="stop-color:#E41760"/>
			<stop  offset="1" style="stop-color:#E00070"/>
		</linearGradient>
		<path class="st0" d="M561.44,315.1l189.18-189.18c9.7-9.7,2.83-26.29-10.89-26.29H664.4L465.27,298.76h-69.16l172.83-172.84
			c9.7-9.7,2.83-26.29-10.89-26.29H308.04l-0.2,0.24H205.88l45.93,79.55h96.15v-0.45h55.42L285.67,296.7
			c-8.87-0.79-16.83-2.9-24.06-6.08c-13.76-6.09-25.09-16.21-33.1-28.82c-8-12.58-12.42-27.5-12.4-42.25
			c0-8.67,1.48-17.29,4.6-25.68c0.7-1.89,1.58-3.75,2.47-5.61l-43.65-75.61l-3.58,4.06l0,0c0,0,0,0,0,0l0,0l0,0
			c-13.33,15.08-23.29,31.91-29.79,49.41c-6.52,17.5-9.6,35.64-9.6,53.43c0.06,40.47,15.63,79.18,43.06,108.45
			c12.02,12.8,26.4,23.76,42.73,32.02L33.76,548.61c-9.7,9.7-2.83,26.29,10.89,26.29h75.33l196.97-196.97l7.52,0.39h61.25
			L215.42,548.61c-9.7,9.7-2.83,26.29,10.89,26.29h210.09v0.63h138.96l-46.17-79.97H380.99l116.89-116.9
			c9.2,0.73,17.44,2.84,24.88,6.12c13.76,6.09,25.09,16.21,33.1,28.82c8,12.58,12.42,27.5,12.4,42.25c0,8.67-1.48,17.29-4.6,25.68
			c-1.07,2.86-2.43,5.69-3.93,8.5l43.22,74.86l5.46-6.18l0.01-0.02c13.33-15.08,23.29-31.91,29.79-49.41
			c6.52-17.5,9.6-35.64,9.6-53.43c-0.06-40.47-15.63-79.18-43.06-108.45C592.59,334.45,578,323.39,561.44,315.1z"/>
		<linearGradient id="SVGID_2_" gradientUnits="userSpaceOnUse" x1="188.3555" y1="280.1213" x2="366.0957" y2="415.7817">
			<stop  offset="0" style="stop-color:#000000;stop-opacity:0"/>
			<stop  offset="1" style="stop-color:#000000"/>
		</linearGradient>
		<path class="st1" d="M285.67,296.7c0,0-41.48-0.66-62.84-45.25l-71.76,33.44c0,0,19.61,50.87,71.27,75.13L285.67,296.7z"/>
		<linearGradient id="SVGID_3_" gradientUnits="userSpaceOnUse" x1="560.5772" y1="244.3133" x2="460.0881" y2="421.4254">
			<stop  offset="0" style="stop-color:#000000;stop-opacity:0"/>
			<stop  offset="1" style="stop-color:#000000"/>
		</linearGradient>
		<path class="st2" d="M465.27,298.76l81.32-81.23l69.71,42.08l-54.87,55.49C561.44,315.1,520.37,295.02,465.27,298.76z"/>
		<linearGradient id="SVGID_4_" gradientUnits="userSpaceOnUse" x1="409.0427" y1="419.8111" x2="425.1801" y2="308.4632">
			<stop  offset="0" style="stop-color:#000000;stop-opacity:0"/>
			<stop  offset="1" style="stop-color:#000000"/>
		</linearGradient>
		<polygon class="st3" points="497.88,378.66 435.11,441.28 323.12,440.81 385.72,378.32 		"/>
		<linearGradient id="SVGID_5_" gradientUnits="userSpaceOnUse" x1="358.7192" y1="284.4762" x2="534.8892" y2="58.3756">
			<stop  offset="0" style="stop-color:#000000;stop-opacity:0"/>
			<stop  offset="1" style="stop-color:#000000"/>
		</linearGradient>
		<path class="st4" d="M403.39,178.98c0,0,123.35-3.61,30.16,82.52l-37.43,37.26l-97.6-14.81L403.39,178.98z"/>
		<linearGradient id="SVGID_6_" gradientUnits="userSpaceOnUse" x1="428.5221" y1="390.2978" x2="276.5323" y2="576.8308">
			<stop  offset="0" style="stop-color:#000000;stop-opacity:0"/>
			<stop  offset="1" style="stop-color:#000000"/>
		</linearGradient>
		<path class="st5" d="M497.88,378.32H385.72l-19.61,19.63c-105.28,98.68,14.88,97.61,14.88,97.61l57.45-57.35l0,0L497.88,378.32z"
			/>
		<linearGradient id="SVGID_7_" gradientUnits="userSpaceOnUse" x1="416.7788" y1="344.8004" x2="214.5444" y2="293.9278">
			<stop  offset="0" style="stop-color:#000000;stop-opacity:0"/>
			<stop  offset="1" style="stop-color:#000000"/>
		</linearGradient>
		<polygon class="st6" points="396.11,298.76 465.27,298.76 385.72,378.32 316.95,377.93 		"/>
	</g>
</g>
</svg>
