<?xml version="1.0" encoding="utf-8"?>
<!-- Generator: Adobe Illustrator 24.2.3, SVG Export Plug-In . SVG Version: 6.00 Build 0)  -->
<svg version="1.1" id="Layer_1" xmlns="http://www.w3.org/2000/svg" xmlns:xlink="http://www.w3.org/1999/xlink" x="0px" y="0px"
	 viewBox="0 0 1500 675.16" style="enable-background:new 0 0 1500 675.16;" xml:space="preserve">
<style type="text/css">
	.st0{fill:url(#SVGID_1_);}
	.st1{fill:url(#SVGID_2_);}
	.st2{fill:url(#SVGID_3_);}
	.st3{fill:url(#SVGID_4_);}
	.st4{fill:url(#SVGID_5_);}
	.st5{fill:url(#SVGID_6_);}
	.st6{fill:url(#SVGID_7_);}
	.st7{fill:url(#SVGID_8_);}
	.st8{fill:url(#SVGID_9_);}
	.st9{fill:url(#SVGID_10_);}
	.st10{fill:url(#SVGID_11_);}
	.st11{fill:url(#SVGID_12_);}
	.st12{fill:url(#SVGID_13_);}
	.st13{fill:url(#SVGID_14_);}
	.st14{fill:#FCFCFC;}
	.st15{fill:url(#SVGID_15_);}
	.st16{fill:url(#SVGID_16_);}
	.st17{fill:url(#SVGID_17_);}
	.st18{fill:url(#SVGID_18_);}
	.st19{fill:url(#SVGID_19_);}
	.st20{fill:url(#SVGID_20_);}
	.st21{fill:url(#SVGID_21_);}
</style>
<g>
	<g>
		<linearGradient id="SVGID_1_" gradientUnits="userSpaceOnUse" x1="415.445" y1="-174.767" x2="1089.1154" y2="670.8543">
			<stop  offset="0" style="stop-color:#F9A103"/>
			<stop  offset="0.4399" style="stop-color:#ED5437"/>
			<stop  offset="0.8198" style="stop-color:#E41760"/>
			<stop  offset="1" style="stop-color:#E00070"/>
		</linearGradient>
		<path class="st0" d="M908.69,224.4l177.37-177.37c9.1-9.1,2.65-24.65-10.21-24.65h-70.63l-186.7,186.7h-64.84L915.73,47.02
			c9.1-9.1,2.65-24.65-10.21-24.65H671.1l-0.18,0.23h-95.6l43.06,74.59h90.15v-0.42h51.96L650.13,207.15
			c-8.32-0.74-15.78-2.72-22.55-5.7c-12.9-5.71-23.53-15.2-31.03-27.02c-7.5-11.8-11.64-25.78-11.62-39.61
			c0-8.13,1.39-16.21,4.31-24.07c0.66-1.77,1.49-3.52,2.32-5.26l-40.93-70.89l-3.36,3.81l0,0c0,0,0,0,0,0l0,0l0,0
			c-12.5,14.14-21.84,29.92-27.93,46.32c-6.11,16.41-9,33.41-9,50.1c0.06,37.95,14.66,74.24,40.37,101.68
			c11.27,12,24.76,22.28,40.06,30.02L413.94,443.34c-9.1,9.1-2.65,24.65,10.21,24.65h70.63L679.46,283.3l7.05,0.37h57.43
			L584.27,443.34c-9.1,9.1-2.65,24.65,10.21,24.65h196.99v0.59h130.29l-43.29-74.98H739.5l109.6-109.6
			c8.62,0.68,16.35,2.66,23.33,5.74c12.9,5.71,23.53,15.2,31.03,27.02c7.5,11.8,11.64,25.78,11.62,39.61
			c0,8.13-1.39,16.21-4.31,24.07c-1,2.68-2.28,5.33-3.69,7.97l40.52,70.19l5.12-5.79l0.01-0.02c12.5-14.14,21.84-29.92,27.93-46.33
			c6.11-16.41,9-33.41,9-50.1c-0.06-37.95-14.66-74.24-40.37-101.68C937.9,242.54,924.22,232.17,908.69,224.4z"/>
		<linearGradient id="SVGID_2_" gradientUnits="userSpaceOnUse" x1="558.8854" y1="191.6004" x2="725.5364" y2="318.7969">
			<stop  offset="0" style="stop-color:#000000;stop-opacity:0"/>
			<stop  offset="1" style="stop-color:#000000"/>
		</linearGradient>
		<path class="st1" d="M650.13,207.15c0,0-38.89-0.62-58.92-42.43l-67.28,31.36c0,0,18.38,47.69,66.83,70.44L650.13,207.15z"/>
		<linearGradient id="SVGID_3_" gradientUnits="userSpaceOnUse" x1="907.8842" y1="158.0264" x2="813.6646" y2="324.0885">
			<stop  offset="0" style="stop-color:#000000;stop-opacity:0"/>
			<stop  offset="1" style="stop-color:#000000"/>
		</linearGradient>
		<path class="st2" d="M818.53,209.08l76.25-76.16l65.36,39.45l-51.45,52.03C908.69,224.4,870.19,205.57,818.53,209.08z"/>
		<linearGradient id="SVGID_4_" gradientUnits="userSpaceOnUse" x1="765.8039" y1="322.575" x2="780.9345" y2="218.174">
			<stop  offset="0" style="stop-color:#000000;stop-opacity:0"/>
			<stop  offset="1" style="stop-color:#000000"/>
		</linearGradient>
		<polygon class="st3" points="849.1,283.99 790.25,342.7 685.25,342.26 743.94,283.67 		"/>
		<linearGradient id="SVGID_5_" gradientUnits="userSpaceOnUse" x1="718.6201" y1="195.6836" x2="883.7989" y2="-16.3106">
			<stop  offset="0" style="stop-color:#000000;stop-opacity:0"/>
			<stop  offset="1" style="stop-color:#000000"/>
		</linearGradient>
		<path class="st4" d="M760.5,96.77c0,0,115.65-3.38,28.28,77.37l-35.1,34.94l-91.51-13.89L760.5,96.77z"/>
		<linearGradient id="SVGID_6_" gradientUnits="userSpaceOnUse" x1="784.0681" y1="294.903" x2="641.5609" y2="469.7982">
			<stop  offset="0" style="stop-color:#000000;stop-opacity:0"/>
			<stop  offset="1" style="stop-color:#000000"/>
		</linearGradient>
		<path class="st5" d="M849.1,283.67H743.94l-18.39,18.4c-98.71,92.53,13.95,91.52,13.95,91.52l53.86-53.77l0,0L849.1,283.67z"/>
		<linearGradient id="SVGID_7_" gradientUnits="userSpaceOnUse" x1="773.0574" y1="252.2442" x2="583.4404" y2="204.5455">
			<stop  offset="0" style="stop-color:#000000;stop-opacity:0"/>
			<stop  offset="1" style="stop-color:#000000"/>
		</linearGradient>
		<polygon class="st6" points="753.68,209.08 818.53,209.08 743.94,283.67 679.46,283.3 		"/>
	</g>
	<g>
		<path class="st14" d="M82.72,558.76H20.88v-16.95h87.59v14.44l-63.73,77.7v0.47h64.67v17.11H18.84v-14.28l63.89-78.01V558.76z"/>
		<path class="st14" d="M170.55,556.25c-5.39,0-9.81,1.1-13.27,3.3c-3.45,2.2-5.18,5.52-5.18,9.97s1.73,7.85,5.18,10.2
			c3.45,2.36,10.8,4.89,22.05,7.61c11.25,2.72,19.73,6.54,25.43,11.46c5.7,4.92,8.56,12.16,8.56,21.74
			c0,9.58-3.61,17.34-10.83,23.31c-7.22,5.97-16.69,8.95-28.41,8.95c-17.16,0-32.39-5.91-45.68-17.74l11.62-13.97
			c11.09,9.63,22.6,14.44,34.53,14.44c5.96,0,10.7-1.28,14.21-3.85c3.51-2.56,5.26-5.96,5.26-10.2s-1.65-7.53-4.95-9.89
			c-3.3-2.35-8.98-4.5-17.03-6.44c-8.06-1.94-14.18-3.71-18.37-5.34c-4.18-1.62-7.9-3.74-11.14-6.36
			c-6.49-4.92-9.73-12.45-9.73-22.6c0-10.15,3.69-17.97,11.07-23.47c7.38-5.49,16.51-8.24,27.39-8.24c7.01,0,13.97,1.15,20.88,3.45
			c6.91,2.3,12.87,5.55,17.9,9.73l-9.89,13.97c-3.24-2.93-7.64-5.34-13.19-7.22C181.4,557.19,175.94,556.25,170.55,556.25z"/>
		<path class="st14" d="M322.88,620.76l24.49-78.96h16.64l24.49,78.96l27.63-78.96h19.94l-38.3,109.72h-18.36l-23.08-75.19h-1.25
			l-23.08,75.19h-18.36l-38.3-109.72h19.93L322.88,620.76z"/>
		<path class="st14" d="M534.95,541.81v17.42H476.4v29.04h52.58v16.48H476.4v29.35h60.43v17.42h-78.96V541.81H534.95z"/>
		<path class="st14" d="M613.28,651.53h-48.03V541.81h42.69c7.43,0,13.84,0.89,19.23,2.67c5.39,1.78,9.39,4.19,12.01,7.22
			c5.02,5.65,7.53,12.03,7.53,19.15c0,8.58-2.72,14.97-8.16,19.15c-1.99,1.47-3.35,2.38-4.08,2.75c-0.73,0.37-2.04,0.97-3.92,1.81
			c6.8,1.46,12.22,4.52,16.25,9.18c4.03,4.66,6.04,10.44,6.04,17.35c0,7.64-2.62,14.39-7.85,20.25
			C638.81,648.13,628.24,651.53,613.28,651.53z M583.77,587.33h23.54c13.39,0,20.09-4.55,20.09-13.66c0-5.23-1.62-9-4.87-11.3
			c-3.24-2.3-8.27-3.45-15.07-3.45h-23.7V587.33z M583.77,634.42h29.04c6.8,0,12.01-1.07,15.62-3.22c3.61-2.14,5.42-6.2,5.42-12.16
			c0-9.73-7.8-14.6-23.39-14.6h-26.68V634.42z"/>
		<path class="st14" d="M713.97,556.25c-5.39,0-9.81,1.1-13.27,3.3c-3.45,2.2-5.18,5.52-5.18,9.97s1.73,7.85,5.18,10.2
			c3.45,2.36,10.8,4.89,22.05,7.61c11.25,2.72,19.73,6.54,25.43,11.46c5.7,4.92,8.56,12.16,8.56,21.74
			c0,9.58-3.61,17.34-10.83,23.31c-7.22,5.97-16.69,8.95-28.41,8.95c-17.16,0-32.39-5.91-45.68-17.74l11.62-13.97
			c11.09,9.63,22.6,14.44,34.53,14.44c5.96,0,10.7-1.28,14.21-3.85c3.51-2.56,5.26-5.96,5.26-10.2s-1.65-7.53-4.95-9.89
			c-3.3-2.35-8.98-4.5-17.03-6.44c-8.06-1.94-14.18-3.71-18.37-5.34c-4.18-1.62-7.9-3.74-11.14-6.36
			c-6.49-4.92-9.73-12.45-9.73-22.6c0-10.15,3.69-17.97,11.07-23.47c7.38-5.49,16.51-8.24,27.39-8.24c7.01,0,13.97,1.15,20.88,3.45
			c6.91,2.3,12.87,5.55,17.9,9.73l-9.89,13.97c-3.24-2.93-7.64-5.34-13.19-7.22C724.83,557.19,719.36,556.25,713.97,556.25z"/>
		<path class="st14" d="M861.45,541.81v17.42H802.9v29.04h52.58v16.48H802.9v29.35h60.43v17.42h-78.96V541.81H861.45z"/>
		<path class="st14" d="M979.33,577.44c0,18.11-7.9,29.51-23.7,34.22l28.73,39.87h-23.54l-26.21-36.89h-24.33v36.89h-18.52V541.81
			h40.81c16.74,0,28.73,2.82,35.94,8.48C975.72,555.94,979.33,564.99,979.33,577.44z M954.68,592.98c3.77-3.24,5.65-8.45,5.65-15.62
			c0-7.17-1.94-12.09-5.81-14.76c-3.87-2.67-10.78-4-20.72-4h-23.54v39.24h23.07C943.8,597.85,950.92,596.23,954.68,592.98z"/>
		<path class="st14" d="M1059.39,651.53h-20.72l-44.11-109.72h20.72l33.75,81.94l33.75-81.94h20.72L1059.39,651.53z"/>
		<path class="st14" d="M1123.9,541.81h18.52v109.72h-18.52V541.81z"/>
		<path class="st14" d="M1227.66,634.73c6.38,0,11.88-1.07,16.48-3.22c4.6-2.14,9.42-5.57,14.44-10.28l11.93,12.24
			c-11.62,12.87-25.72,19.31-42.3,19.31c-16.59,0-30.35-5.34-41.28-16.01c-10.94-10.67-16.41-24.17-16.41-40.5
			c0-16.33,5.57-29.93,16.72-40.81s25.22-16.33,42.23-16.33c17,0,31.21,6.28,42.62,18.84l-11.77,12.87
			c-5.23-5.02-10.18-8.53-14.84-10.52c-4.66-1.99-10.12-2.98-16.4-2.98c-11.09,0-20.41,3.59-27.94,10.75
			c-7.53,7.17-11.3,16.33-11.3,27.47s3.74,20.46,11.22,27.94C1208.53,631,1217.4,634.73,1227.66,634.73z"/>
		<path class="st14" d="M1374.89,541.81v17.42h-58.55v29.04h52.58v16.48h-52.58v29.35h60.43v17.42h-78.96V541.81H1374.89z"/>
		<path class="st14" d="M1438.39,556.25c-5.39,0-9.81,1.1-13.27,3.3c-3.45,2.2-5.18,5.52-5.18,9.97s1.73,7.85,5.18,10.2
			c3.45,2.36,10.8,4.89,22.05,7.61c11.25,2.72,19.73,6.54,25.43,11.46c5.7,4.92,8.56,12.16,8.56,21.74
			c0,9.58-3.61,17.34-10.83,23.31c-7.22,5.97-16.69,8.95-28.41,8.95c-17.16,0-32.39-5.91-45.68-17.74l11.62-13.97
			c11.09,9.63,22.6,14.44,34.53,14.44c5.96,0,10.7-1.28,14.21-3.85c3.51-2.56,5.26-5.96,5.26-10.2s-1.65-7.53-4.95-9.89
			c-3.3-2.35-8.98-4.5-17.03-6.44c-8.06-1.94-14.18-3.71-18.37-5.34c-4.18-1.62-7.9-3.74-11.14-6.36
			c-6.49-4.92-9.73-12.45-9.73-22.6c0-10.15,3.69-17.97,11.07-23.47c7.38-5.49,16.51-8.24,27.39-8.24c7.01,0,13.97,1.15,20.88,3.45
			c6.91,2.3,12.87,5.55,17.9,9.73l-9.89,13.97c-3.24-2.93-7.64-5.34-13.19-7.22C1449.24,557.19,1443.78,556.25,1438.39,556.25z"/>
	</g>
</g>
</svg>
